<?xml version="1.0" encoding="utf-8"?>
<!-- Generator: Adobe Illustrator 27.0.0, SVG Export Plug-In . SVG Version: 6.00 Build 0)  -->
<svg version="1.1" id="Calque_1" xmlns="http://www.w3.org/2000/svg" xmlns:xlink="http://www.w3.org/1999/xlink" x="0px" y="0px"
	 viewBox="0 0 26.9 34" style="enable-background:new 0 0 26.9 34;" xml:space="preserve">
<style type="text/css">
	.st0{fill:#BE1622;}
</style>
<g>
	<path class="st0" d="M26.9,15.8c-0.1-1.2-0.3-2.4-0.6-3.6c-0.1-0.3-0.1-0.6-0.2-0.8c-0.1-0.4-0.2-0.8-0.4-1.2
		c-0.2-0.5-0.4-1.1-0.6-1.6c-0.3-0.6-0.6-1.3-1-1.9c-0.4-0.7-0.8-1.4-1.4-2c-0.7-0.9-1.5-1.6-2.4-2.3c-0.9-0.6-1.8-1.2-2.8-1.5
		c-0.9-0.3-1.8-0.6-2.8-0.6c-0.4,0-0.7-0.1-1.1-0.1c-0.3,0-0.6,0.1-0.9,0.1c-0.8,0-1.7,0.2-2.5,0.4C9.5,0.7,8.7,1,7.9,1.5
		C6.8,2.1,5.9,2.8,5,3.7C4.4,4.4,3.9,5,3.4,5.7C3.2,6,3,6.4,2.8,6.7C2.5,7.3,2.1,8,1.9,8.6c-0.3,0.7-0.6,1.5-0.8,2.2
		c-0.2,0.7-0.4,1.3-0.5,2c-0.2,0.8-0.2,1.6-0.3,2.3C0.1,15.7,0,16.3,0,17c0,0.5,0.1,1,0.1,1.5c0,0.3,0,0.6,0.1,1
		c0.1,0.7,0.2,1.4,0.4,2.1c0,0.2,0.1,0.5,0.2,0.7C1,22.8,1.1,23.5,1.3,24c0.1,0.4,0.3,0.8,0.5,1.2c0.2,0.5,0.4,1,0.7,1.5
		c0.4,0.7,0.8,1.5,1.4,2.1c0.7,0.9,1.4,1.7,2.3,2.4c0.6,0.5,1.2,0.9,1.9,1.3c0.6,0.3,1.2,0.5,1.7,0.8c0.5,0.2,1.1,0.3,1.6,0.4
		c0.4,0.1,0.9,0.2,1.3,0.2c0.7,0,1.4,0,2.1-0.1c0.7-0.1,1.5-0.3,2.2-0.5c0.9-0.3,1.7-0.6,2.5-1.1c0.9-0.6,1.7-1.3,2.5-2
		c0.9-0.9,1.6-2,2.3-3.1c0.2-0.4,0.4-0.8,0.6-1.2c0.2-0.4,0.4-0.8,0.5-1.2c0.2-0.5,0.3-1,0.5-1.5c0.2-0.7,0.4-1.3,0.5-2
		c0.2-0.8,0.2-1.6,0.3-2.4c0-0.4,0.1-0.7,0.1-1.1C26.9,17.1,26.9,16.4,26.9,15.8z M23,8c0.1-0.1,0.2-0.1,0.3,0.1
		c0.1,0.1,0.1,0.2,0.2,0.3c-0.1,0.1-0.1,0.1-0.2,0.2c-0.6,0.3-1.2,0.6-1.7,1c-0.4,0.2-0.8,0.5-1.2,0.7c-0.1,0-0.2,0.1-0.2,0
		C20.2,10,20.1,9.8,20,9.7c0,0,0-0.1,0.1-0.1c0.7-0.4,1.3-0.7,2-1.1C22.4,8.3,22.7,8.1,23,8z M20.4,17c0,0.8-0.1,1.6-0.2,2.4
		c-0.1,0.5-0.2,1-0.3,1.5c-0.2,0.7-0.5,1.4-0.8,2.1c-0.4,0.8-0.9,1.5-1.5,2.2c-0.7,0.7-1.5,1.3-2.5,1.6c-0.8,0.3-1.6,0.3-2.4,0.2
		c-1.3-0.2-2.3-0.9-3.2-1.9c-0.7-0.7-1.2-1.6-1.6-2.5c-0.2-0.5-0.4-1.1-0.6-1.6c-0.3-0.9-0.4-1.8-0.5-2.7c0-0.4-0.1-0.7-0.1-1.1
		c0-0.8,0-1.6,0.2-2.4c0.1-0.5,0.2-1.1,0.3-1.6c0.1-0.4,0.3-0.8,0.4-1.2c0.4-0.9,0.9-1.8,1.5-2.5c0.7-0.8,1.5-1.5,2.4-1.9
		C12,7.2,12.5,7,13.1,7c0.6,0,1.1,0,1.7,0.2c0.9,0.2,1.6,0.7,2.3,1.3c0.9,0.8,1.5,1.7,2,2.7c0.2,0.5,0.4,1,0.6,1.6
		c0.3,0.9,0.5,1.9,0.6,2.9C20.3,16.1,20.4,16.6,20.4,17z M19.9,4.2c0.2-0.2,0.2-0.2,0.4,0c0.3,0.3,0.6,0.5,0.8,0.8
		c0.4,0.5,0.7,1,0.5,1.7c-0.1,0.2-0.2,0.5-0.3,0.7c-0.3,0.5-1,0.9-1.6,0.8c-0.5,0-0.9-0.2-1.3-0.6c-0.3-0.3-0.5-0.5-0.8-0.8
		c-0.1-0.1-0.1-0.2,0-0.3C18.3,5.7,19.1,4.9,19.9,4.2z M14.7,5.1c0.2-0.4,0.3-0.8,0.4-1.2c0.2-0.5,0.4-1,0.5-1.5
		c0-0.1,0.1-0.3,0.1-0.4c0-0.1,0.1-0.1,0.2-0.1c0.6,0.2,1.2,0.4,1.7,0.6c0.2,0.1,0.2,0.1,0.1,0.3c0,0.1-0.1,0.1-0.1,0.2
		C17.8,3,17.7,3,17.6,3c-0.4-0.1-0.8-0.3-1.1-0.4c-0.2-0.1-0.2,0-0.3,0.1c-0.1,0.2-0.1,0.4-0.2,0.6c-0.1,0.1,0,0.2,0.1,0.3
		c0.4,0.1,0.7,0.2,1.1,0.4c0.1,0,0.2,0.1,0.1,0.2c0,0.1-0.1,0.3-0.2,0.3c-0.2-0.1-0.4-0.1-0.6-0.2C16.3,4.1,16.1,4,15.9,4
		c0,0-0.1,0-0.2,0.1c-0.1,0.3-0.2,0.5-0.3,0.8c-0.1,0.1,0,0.2,0.1,0.3c0.4,0.1,0.7,0.2,1.1,0.4c0.3,0.1,0.3,0.2,0.2,0.4
		C16.8,6,16.7,6.1,16.5,6c-0.4-0.1-0.8-0.3-1.1-0.4c-0.2-0.1-0.4-0.1-0.6-0.2C14.6,5.4,14.6,5.3,14.7,5.1z M11,1.8
		c0.4-0.1,0.8-0.1,1-0.1c0.5,0,0.9,0,1.1,0.3c0.4,0.4,0.4,1.2-0.2,1.6c-0.2,0.1-0.2,0.1,0,0.3c0.4,0.4,0.8,0.8,1.3,1.2
		c0,0,0.1,0.1,0.1,0.2c0,0-0.1,0-0.1,0.1c0,0,0,0,0,0c-0.4,0.1-0.7,0-0.9-0.3c-0.3-0.3-0.5-0.6-0.8-0.8c-0.1-0.1-0.1-0.1-0.2-0.2
		c-0.3-0.1-0.4,0-0.4,0.3c0,0.3,0.1,0.7,0.1,1c0,0.2,0,0.3-0.2,0.3c-0.4,0-0.3,0-0.4-0.3c-0.1-0.5-0.1-1.1-0.2-1.6
		C11,3.1,10.9,2.6,10.8,2C10.8,1.9,10.9,1.8,11,1.8z M6.8,4.7c0.1-0.3,0.2-0.6,0.5-0.8c0.3-0.4,0.8-0.6,1.3-0.8c0,0,0.1,0,0.1,0
		c0,0,0,0,0.1,0.1C9.1,3.6,9,3.6,8.6,3.7C7.9,3.8,7.2,4.5,7.4,5.4C7.5,5.9,8,6.5,8.7,6.6c0.3,0,0.6-0.1,0.8-0.2
		c0.3-0.2,0.6-0.4,0.7-0.8c0-0.1,0.1-0.1,0.2,0c0.1,0.1,0.2,0.2,0.2,0.3c0,0,0,0.1,0,0.2C10.3,6.5,9.9,6.8,9.3,7
		C9.1,7.1,8.9,7.1,8.6,7.2C8,7.1,7.5,6.8,7.1,6.3C6.8,5.8,6.7,5.2,6.8,4.7z M4.4,6.8c0.1-0.2,0.3-0.4,0.5-0.5c0.1-0.1,0.2-0.1,0.3,0
		c0,0,0.1,0,0.1,0.1c0.1,0,0.2,0.1,0.1,0.1c0,0.1-0.1,0.1-0.1,0.2C5,6.8,4.8,7.2,4.6,7.5C4.3,8.3,4.8,9,5.4,9.3
		C6.2,9.7,7,9.1,7.3,8.5C7.4,8.3,7.5,8,7.4,7.8c0,0,0-0.1,0-0.1c0,0,0.1,0,0.1,0c0.1,0,0.1,0.1,0.2,0.1C7.9,7.9,7.9,8,7.9,8.2
		C7.8,8.9,7.4,9.4,6.8,9.8C6.5,10,6.3,10.1,6,10c-0.9,0-2-0.7-2-1.8C3.9,7.7,4.1,7.2,4.4,6.8z M2.3,11.3c0,0,0.1-0.1,0.1-0.1
		c0-0.2,0.2-0.2,0.3-0.3c0.6,0,1.1-0.1,1.7-0.1c0,0,0,0,0,0c0.6,0,1.2,0,1.8-0.1c0.2,0,0.2,0.1,0.2,0.2c0,0.1-0.1,0.2-0.1,0.3
		c0,0.1-0.1,0.1-0.2,0.1c-0.3,0-0.6,0-0.9,0c-0.2,0-0.3,0.1-0.4,0.3c-0.1,0.3-0.2,0.6-0.3,0.8c0,0.1,0,0.2,0.1,0.2
		c0.2,0.2,0.5,0.4,0.8,0.6c0.2,0.1,0.2,0.2,0.1,0.4c0,0,0,0.1,0,0.1c-0.1,0.2-0.1,0.2-0.3,0.1c-0.1-0.1-0.3-0.2-0.4-0.3
		c-0.8-0.7-1.6-1.3-2.4-2C2.2,11.6,2.2,11.4,2.3,11.3z M4,18.8c0,0-0.1,0.1-0.1,0.1c-0.2-0.1-0.3-0.1-0.5-0.2c0,0-0.1-0.1,0-0.1
		c0,0,0.1,0,0.1-0.1c0.2,0.1,0.3,0.1,0.5,0.2C4,18.6,4.1,18.7,4,18.8z M3.6,15.6c0,0.2-0.2,0.4-0.4,0.4c-0.2,0-0.4-0.2-0.4-0.4
		c0-0.2,0.2-0.4,0.4-0.4C3.4,15.1,3.6,15.3,3.6,15.6z M2.3,18.3c0-0.2,0-0.4,0-0.7c0-0.1,0.1-0.2,0.2-0.2c0.4,0,0.9,0,1.3-0.1
		c0.1,0,0.2,0,0.2,0.2c0,0.1-0.1,0.2-0.2,0.2c-0.2,0-0.4,0-0.5,0c0,0,0,0,0,0c-0.2,0-0.3,0-0.5,0c-0.1,0-0.2,0.1-0.2,0.2
		c0,0.1,0,0.2,0,0.3c0,0.1-0.1,0.1-0.1,0.2C2.4,18.4,2.3,18.3,2.3,18.3z M2.6,20.4c0-0.2-0.1-0.5-0.1-0.7c0,0,0.1-0.1,0.1-0.2
		c0.4-0.1,0.8-0.1,1.3-0.2c0.1,0,0.2,0,0.2,0.1c0,0.2,0.1,0.3,0.1,0.6c0,0-0.1,0.1-0.1,0.1C4,20.1,4,20.1,3.9,20c0-0.1,0-0.2,0-0.2
		c0-0.1-0.1-0.2-0.2-0.1c-0.1,0-0.2,0.1-0.2,0.2c0,0.1,0.1,0.1,0,0.2c0,0.1-0.1,0.1-0.1,0.2c-0.1,0-0.1-0.1-0.2-0.1c0,0,0-0.1,0-0.1
		c0-0.3-0.2-0.4-0.4-0.2c0,0-0.1,0.1-0.1,0.2c0,0.1,0.1,0.2,0.1,0.3c0,0.1-0.1,0.1-0.1,0.2C2.7,20.4,2.6,20.4,2.6,20.4z M3.1,22.4
		c0-0.1,0-0.1,0-0.2c0.1-0.1,0.2-0.2,0.2-0.3c0.1-0.2,0.3-0.4,0.4-0.6c0,0,0-0.1,0-0.1c0,0-0.1,0-0.1,0c-0.2,0.1-0.4,0.2-0.7,0.2
		c-0.1,0-0.1,0-0.2,0c0,0-0.1-0.1-0.1-0.1c0,0,0.1-0.1,0.1-0.1c0.4-0.1,0.8-0.3,1.2-0.4c0,0,0.2,0,0.2,0c0,0.1,0,0.2,0,0.3
		c-0.1,0.2-0.2,0.4-0.4,0.6c-0.1,0.2-0.2,0.3-0.3,0.5c0,0,0,0,0,0.1C3.8,22,4.1,22,4.3,21.9c0.1,0,0.1-0.1,0.2-0.1
		c0.1,0,0.1,0.1,0.2,0.1c0,0,0,0.1-0.1,0.2c-0.4,0.1-0.9,0.2-1.3,0.4C3.2,22.5,3.1,22.4,3.1,22.4z M3.7,23.8
		C3.7,23.8,3.7,23.8,3.7,23.8c-0.1,0-0.2-0.1-0.2-0.1c0,0,0-0.1,0.1-0.2c0.3-0.1,0.6-0.3,1-0.4c0.2-0.1,0.2-0.2,0.1-0.3
		c0,0,0-0.1,0-0.1c0-0.1,0-0.2,0-0.2c0.1,0,0.2,0.1,0.2,0.1c0.1,0.3,0.3,0.6,0.4,0.9c0,0.1,0,0.2-0.1,0.2c-0.1,0-0.1-0.1-0.2-0.1
		c0,0,0,0,0-0.1c-0.1-0.2-0.1-0.3-0.4-0.1C4.3,23.5,4,23.6,3.7,23.8z M5.2,24.4c-0.1,0.1-0.2,0.1-0.1,0.3c0,0.1,0.1,0.1,0.1,0.2
		c0,0,0,0.1,0,0.2c0,0-0.1,0-0.2,0C5,25,4.9,24.9,4.9,24.8c0,0-0.1-0.1-0.1-0.1c-0.3,0-0.4,0.2-0.3,0.4c0,0,0.1,0.1,0.1,0.1
		c0.1,0.1,0.1,0.2,0,0.3c-0.1,0.1-0.2-0.1-0.2-0.2c0-0.1-0.1-0.2-0.1-0.2c0,0,0-0.1-0.1-0.1C4,24.7,4,24.7,4.3,24.5
		c0.3-0.1,0.6-0.3,0.9-0.5C5.4,24,5.4,24,5.5,24.1c0.1,0.1,0.2,0.3,0.2,0.4c0,0.1,0,0.1,0,0.2c-0.1,0-0.2,0-0.2-0.1
		c-0.1-0.1-0.1-0.2-0.1-0.2C5.4,24.4,5.3,24.4,5.2,24.4z M6,27.7c-0.1-0.1-0.3-0.3-0.4-0.4c-0.1-0.1-0.1-0.2,0-0.3
		c0.3-0.3,0.7-0.6,1-0.8c0,0,0.1,0,0.2,0c0.2,0.2,0.3,0.4,0.4,0.6c0.3,0.4,0,0.8-0.2,1c-0.1,0.1-0.3,0.2-0.5,0.2
		C6.3,27.9,6.1,27.8,6,27.7z M8.1,27.8c-0.3,0.3-0.6,0.6-0.8,0.9c-0.1,0.1-0.2,0.1-0.3,0.1c-0.1-0.1,0-0.2,0-0.3
		c0.3-0.3,0.6-0.6,0.8-0.9c0,0,0.1-0.1,0.2-0.1c0.1,0,0.1,0.1,0.2,0.1C8.2,27.7,8.1,27.7,8.1,27.8z M10.1,29.3
		c0,0.4-0.1,0.8-0.1,1.1c0,0.1-0.1,0.1-0.1,0.1c-0.1,0-0.2,0-0.2-0.1c0-0.1-0.1-0.2,0-0.3c0.1-0.2-0.1-0.3-0.2-0.4
		c-0.2-0.1-0.3-0.1-0.4,0.1C9,30,8.9,30,8.9,30c-0.1,0.1-0.2,0-0.2-0.1c-0.1-0.1,0-0.1,0.1-0.2c0.3-0.3,0.7-0.6,1-0.9
		c0.1-0.1,0.2-0.1,0.2-0.1c0,0.1,0.1,0.2,0.1,0.3C10.1,29.2,10.1,29.2,10.1,29.3C10.1,29.3,10.1,29.3,10.1,29.3z M11.8,29.8
		c-0.1,0-0.2-0.1-0.3-0.2c-0.2,0-0.4,0-0.6,0.3c-0.1,0.2-0.1,0.4,0,0.6c0.1,0.2,0.3,0.3,0.6,0.3c0,0,0.1,0,0.1,0
		c0.1,0,0.1,0.1,0.2,0.1c0,0-0.1,0.1-0.1,0.1c-0.1,0-0.3,0-0.4,0c-0.4-0.1-0.6-0.4-0.6-0.8c0-0.4,0.3-0.7,0.7-0.8
		c0.3-0.1,0.6,0.1,0.8,0.2c0,0,0,0.1,0.1,0.2C11.9,29.8,11.9,29.8,11.8,29.8z M12.6,30.8c0.1,0.2,0.4,0.3,0.6,0.2
		c0.1,0,0.2-0.1,0.3,0c0,0.2-0.1,0.2-0.2,0.2c-0.4,0.1-0.8-0.1-1-0.4c-0.2-0.3-0.1-0.7,0.1-1c0.2-0.2,0.4-0.3,0.7-0.3
		c0.1,0,0.3,0.1,0.4,0.1c0.1,0,0.1,0.1,0.1,0.2c-0.1,0-0.2,0-0.2,0c-0.3-0.1-0.5-0.1-0.7,0.1C12.6,30.2,12.5,30.6,12.6,30.8z
		 M15.1,31.2c-0.1,0.1-0.2,0.1-0.3,0c-0.1-0.1-0.2-0.3-0.3-0.4c0-0.1-0.1-0.1-0.2-0.1c0,0.1,0,0.1,0,0.2c0,0.1,0,0.2,0,0.3
		c0,0.1,0,0.2-0.1,0.2c-0.1,0-0.2-0.1-0.2-0.1c-0.1-0.4-0.1-0.9-0.2-1.3c0-0.1,0-0.2,0.2-0.2c0.1,0,0.2,0,0.4,0
		c0.2,0,0.4,0.1,0.5,0.3c0.1,0.1,0,0.3,0,0.4c-0.1,0.1-0.1,0.3,0,0.4c0.1,0.1,0.1,0.2,0.2,0.2C15.1,31,15.2,31.1,15.1,31.2z
		 M16.6,30.8c-0.2,0.1-0.4,0.2-0.7,0.2c0,0-0.2-0.1-0.2-0.1c-0.1-0.2-0.2-0.5-0.2-0.7c0-0.1-0.1-0.3-0.1-0.4c-0.1-0.2,0-0.2,0.2-0.3
		c0.2,0,0.3-0.1,0.5-0.2c0,0,0.1,0.1,0.1,0.1c0,0,0,0.1-0.1,0.2c-0.1,0-0.1,0.1-0.2,0.1c-0.1,0-0.2,0.1-0.2,0.2
		c0,0.2,0.1,0.2,0.3,0.2c0.1,0,0.1-0.1,0.2-0.1c0.1,0,0.2,0,0.2,0.1c0.1,0.1,0,0.2-0.1,0.2c0,0,0,0-0.1,0c-0.2,0-0.3,0.2-0.2,0.4
		c0,0,0.1,0.1,0.2,0c0.1,0,0.2-0.1,0.3-0.1c0,0,0.1,0,0.1,0.1C16.7,30.7,16.7,30.8,16.6,30.8z M18.3,29.9c-0.2,0.2-0.4,0.4-0.7,0.5
		c-0.1,0.1-0.2,0-0.2-0.1c-0.2-0.4-0.4-0.8-0.6-1.1c0,0,0-0.2,0-0.2c0.3-0.1,0.5-0.2,0.8-0.3c0,0,0.1,0,0.1,0c0.4,0,0.6,0.2,0.7,0.5
		C18.5,29.3,18.5,29.6,18.3,29.9z M19.5,29.2c-0.1,0-0.2,0-0.2,0c-0.3-0.4-0.6-0.7-0.9-1.1c0,0,0-0.1,0-0.2c0.1-0.1,0.1-0.1,0.2,0
		c0.1,0.1,0.1,0.2,0.2,0.3c0.2,0.3,0.4,0.5,0.6,0.8c0,0,0.1,0.1,0.1,0.1C19.6,29.1,19.5,29.1,19.5,29.2z M20.5,28.2
		c-0.1,0.1-0.2,0.1-0.3,0c-0.2-0.2-0.5-0.5-0.7-0.7c0,0-0.1-0.1-0.1-0.1c-0.1,0-0.1,0.1-0.2,0.1c-0.1,0-0.1,0.1-0.2,0.1
		c0,0-0.1,0-0.2,0c0,0,0-0.1,0-0.2c0.2-0.3,0.5-0.5,0.7-0.8c0,0,0.1,0,0.2,0c0,0,0,0.1,0,0.2c0,0,0,0,0,0c-0.2,0.2-0.2,0.2,0,0.5
		c0.2,0.2,0.4,0.4,0.6,0.6C20.5,28.1,20.6,28.1,20.5,28.2z M21.9,26.5c0,0.1-0.2,0.2-0.3,0.1c-0.3-0.1-0.4-0.1-0.6,0.2
		c0,0.1,0,0.2,0,0.2c0,0.1,0.1,0.1,0.1,0.2c0,0.1,0,0.1-0.1,0.2c-0.1,0-0.1,0-0.2-0.1c-0.2-0.4-0.5-0.8-0.7-1.2
		c-0.1-0.2-0.1-0.3,0.1-0.3c0.2,0.1,0.4,0.1,0.6,0.2c0.2,0.1,0.5,0.1,0.7,0.2C21.8,26.4,21.9,26.4,21.9,26.5z M22.8,24.7
		c-0.1-0.1-0.3-0.2-0.4-0.2c-0.1-0.1-0.2-0.1-0.3-0.2c0,0,0,0,0,0c0.1,0.1,0.1,0.2,0.2,0.3c0.1,0.2,0.3,0.3,0.4,0.5
		c0,0.1,0,0.2,0,0.2c0,0-0.1,0.1-0.2,0.1c-0.2,0-0.5-0.1-0.7-0.1c-0.1,0-0.1,0-0.2,0c0.1,0.1,0.1,0.1,0.1,0.1
		c0.2,0.1,0.4,0.2,0.5,0.3c0.1,0.1,0.2,0.1,0.1,0.2c0,0-0.2,0.1-0.2,0c-0.3-0.2-0.7-0.4-1-0.6c-0.1,0-0.1-0.1-0.1-0.1
		C20.8,25.2,20.8,25,21,25c0.1,0,0.1,0,0.2,0c0.3,0,0.6,0,0.8,0.1c0,0,0.1,0,0.1,0c0,0,0-0.1,0-0.2c-0.2-0.2-0.3-0.5-0.5-0.7
		c0,0-0.1-0.1-0.1-0.1c0-0.1,0-0.2,0-0.2c0.1,0,0.2,0,0.2,0c0.4,0.2,0.8,0.4,1.1,0.6c0.1,0,0.1,0.1,0.1,0.2
		C23,24.6,22.9,24.7,22.8,24.7z M23.7,23.1c-0.1,0.2-0.2,0.4-0.2,0.6c0,0.1-0.1,0.1-0.2,0.1c-0.4-0.1-0.7-0.3-1.1-0.4
		c-0.1,0-0.1-0.1-0.2-0.2c0-0.1,0-0.2,0.1-0.2c0-0.1,0.1-0.2,0.1-0.4c0-0.1,0.1-0.1,0.2-0.1c0,0.1,0.1,0.1,0.1,0.2
		c0,0.1-0.1,0.1-0.1,0.2c0,0.1,0,0.2,0,0.2c0.1,0.1,0.2,0.1,0.2,0.1c0,0,0.1-0.1,0.1-0.1c0,0,0-0.1,0-0.2c0-0.1,0.1-0.2,0.2-0.1
		c0.1,0,0.1,0.1,0.1,0.2c0,0,0,0,0,0c-0.1,0.2-0.1,0.3,0.1,0.4c0.1,0,0.2,0,0.3-0.1c0-0.1,0.1-0.2,0.1-0.3c0-0.1,0.1-0.2,0.2-0.1
		C23.6,22.9,23.7,23,23.7,23.1z M24,21.4c-0.3,0.2-0.7,0.3-1,0.4c0,0-0.1,0-0.1,0.1c0,0,0,0,0,0.1c0.2,0.1,0.4,0.1,0.6,0.2
		c0.1,0,0.2,0,0.3,0.1c0,0,0.1,0.1,0.1,0.2c-0.1,0-0.1,0.1-0.2,0.1c-0.4-0.1-0.8-0.2-1.3-0.4c-0.1,0-0.1-0.1-0.1-0.1
		c0,0,0.1-0.1,0.1-0.1c0.3-0.2,0.7-0.3,1-0.5c0.1,0,0.1-0.1,0.2-0.1c-0.1,0-0.1-0.1-0.2-0.1c-0.2-0.1-0.4-0.1-0.6-0.2
		c-0.1,0-0.2-0.1-0.1-0.2c0-0.1,0.1-0.1,0.2,0c0.4,0.1,0.8,0.2,1.2,0.4c0.1,0,0.1,0.1,0.2,0.1C24.1,21.3,24.1,21.4,24,21.4z
		 M24.4,20.1c0,0-0.1,0.1-0.2,0.1c-0.3,0-0.6-0.1-0.9-0.2C23,19.9,23,20,23,20.2c0,0.1-0.1,0.1-0.1,0.2c0,0-0.1,0-0.1,0
		c0,0,0-0.1,0-0.1c0-0.3,0.1-0.6,0.2-0.9c0-0.1,0.1-0.2,0.1-0.2c0.1,0,0.1,0.1,0.2,0.1c0,0,0,0-0.1,0.1c0,0.1,0,0.3,0.1,0.3
		c0.1,0.1,0.2,0.1,0.3,0.1c0.2,0,0.5,0.1,0.7,0.1c0.1,0,0.1,0,0.2,0.1C24.4,19.9,24.4,20,24.4,20.1z M23.8,19
		c-0.5,0-0.9-0.4-0.8-0.8c0-0.4,0.3-0.8,0.8-0.8c0.5,0,0.9,0.4,0.9,0.8C24.7,18.7,24.4,19,23.8,19z M23.4,15.5
		c0-0.2,0.2-0.4,0.4-0.4c0.2,0,0.4,0.2,0.4,0.4c0,0.2-0.2,0.4-0.4,0.4C23.6,15.9,23.4,15.8,23.4,15.5z M24.6,11.7
		c-0.9,0.7-1.7,1.4-2.6,2.1c-0.1,0.1-0.2,0.1-0.3,0.2c-0.1,0.1-0.2,0.1-0.2,0c-0.1-0.1-0.1-0.3-0.1-0.4c0-0.1,0-0.2,0.1-0.2
		c0.3-0.2,0.6-0.4,0.8-0.6c0.1,0,0.1-0.2,0-0.2c-0.1-0.3-0.2-0.5-0.3-0.8c-0.1-0.2-0.2-0.3-0.4-0.3c-0.1,0-0.3,0-0.4,0c0,0,0,0,0,0
		c-0.1,0-0.2,0-0.4,0c-0.2,0-0.3-0.1-0.4-0.2c0-0.1-0.1-0.1-0.1-0.2c0-0.1,0-0.2,0.2-0.2c1,0.1,2.1,0.2,3.1,0.2c0.2,0,0.3,0,0.5,0
		c0.3,0,0.3,0.3,0.3,0.4C24.8,11.5,24.8,11.6,24.6,11.7z"/>
	<path class="st0" d="M18.8,19.7c-0.5-0.5-1.1-0.9-1.7-1.4c-0.1-0.1-0.1-0.2,0-0.3c0.1-0.1,0.1-0.2,0.1-0.2c-0.1,0-0.2-0.1-0.2-0.1
		c-0.1,0-0.3,0-0.4-0.1c-0.3-0.2-0.6-0.4-0.9-0.6c-0.1-0.1-0.2-0.2-0.2-0.3c-0.1-0.4-0.2-0.8-0.3-1.2c0-0.1-0.1-0.2-0.2-0.3
		c-0.2-0.2-0.4-0.3-0.6-0.5c-0.3-0.2-0.4-0.4-0.4-0.8c0-0.3,0-0.5,0-0.8c0-0.2,0.2-0.5,0.4-0.6c0.2-0.1,0.5-0.1,0.7-0.2
		c0.5-0.1,0.5-0.1,0.5-0.6c0,0,0-0.1,0-0.1c0,0,0,0,0,0c0-0.1,0-0.2,0-0.4c0-0.1-0.1-0.2-0.2-0.2c-0.1,0-0.3,0-0.4-0.1
		c-0.1,0-0.2-0.1-0.3-0.2c-0.1-0.1-0.2-0.3-0.3-0.4c-0.1-0.1-0.2-0.1-0.3-0.1c-0.3,0-0.6,0-1,0.1c-0.2,0-0.3,0-0.4,0.2
		c0,0-0.1,0.1-0.1,0.1c-0.3,0.1-0.7,0.3-1,0.3c-0.3,0-0.6,0-0.9-0.1c-0.2,0-0.3,0-0.4,0.1c-0.1,0.1-0.3,0.1-0.4,0.1
		c-0.1,0-0.3,0-0.4,0c-0.2,0.1-0.2,0.3-0.2,0.5c0.1,0.3,0,0.3-0.2,0.4c-0.2,0.1-0.2,0.2-0.2,0.3C9,12.8,9,13,9,13.1
		c0,0.4,0,0.4,0.4,0.6c0,0,0,0,0.1,0c0.1,0,0.2,0.1,0.1,0.2c0,0-0.1,0.1,0,0.1c0,0.1,0,0.1,0.1,0.2c0,0,0.1,0,0.2,0
		c0.3-0.2,0.6-0.4,0.9-0.6c0.1-0.1,0.2-0.1,0.2,0c0.2,0.1,0.3,0.2,0.5,0.3c0.3,0.1,0.5,0.4,0.6,0.7c0.1,0.3,0.1,0.6,0.2,0.9
		c0.1,0.2,0.1,0.4,0.2,0.5c0.5,0.7,1,1.3,1.6,2c0.2,0.2,0.3,0.3,0.6,0.3c0.1,0,0.2,0.1,0.3,0.1c0.4,0.5,0.9,1,1.3,1.5
		c0.1,0.1,0.2,0.3,0.2,0.4c0.1,0.3,0.2,0.6,0.2,0.9c0,0.1,0,0.2,0,0.2c-0.2,0.3-0.2,0.6-0.5,0.8c-0.1,0.1-0.2,0.2-0.1,0.3
		c0.1,0.1,0.2,0.1,0.3,0c0.2-0.1,0.3-0.2,0.5-0.4C17,22.1,17,22,17,21.9c0-0.3,0.1-0.4,0.4-0.3c0.1,0,0.2,0,0.2-0.1
		c0.1-0.2,0.1-0.5-0.1-0.6c-0.1-0.1-0.2-0.2-0.3-0.3c-0.1-0.1-0.1-0.2,0-0.3c0.1-0.1,0.2-0.3,0.3-0.4c0.1-0.1,0.2-0.1,0.3-0.1
		c0.3,0.2,0.6,0.3,0.8,0.6c0,0.1,0.1,0.2,0.3,0.1c0.2-0.1,0.3-0.3,0.2-0.4C19,20,18.9,19.8,18.8,19.7z"/>
	<path class="st0" d="M10.9,18.5c0-0.2,0-0.5,0-0.7c0-0.2-0.1-0.2-0.3-0.2c-0.1,0-0.2,0.1-0.3,0.2c-0.2,0.1-0.4,0.3-0.7,0.2
		c0,0-0.1,0-0.1,0.1c0,0.1,0,0.2,0,0.2c0.3,0.2,0.2,0.5,0.2,0.8c-0.1,0.3-0.1,0.5-0.2,0.8c0,0.1,0.1,0.4,0.2,0.5
		c0.1,0.1,0.2,0,0.3-0.1c0.1-0.1,0.2-0.1,0.3-0.1c0.1,0.1,0.1,0,0.2-0.1C10.8,19.6,10.8,19.1,10.9,18.5
		C10.9,18.5,10.9,18.5,10.9,18.5C10.9,18.5,10.9,18.5,10.9,18.5z"/>
	<path class="st0" d="M15.4,22.2c-0.3,0-0.6,0-1,0c-0.1,0-0.3-0.1-0.4-0.1c-0.2-0.2-0.4-0.2-0.6-0.2c-0.1,0-0.3,0.1-0.3,0.1
		c-0.1,0.1-0.1,0.3,0.1,0.4c0.4,0.3,0.8,0.6,1.2,0.9c0.1,0.1,0.2,0.2,0.2,0.3c0.1,0.1,0.1,0.2,0.3,0.2c0.3,0,0.4-0.1,0.5-0.3
		c0-0.1,0-0.3,0-0.4c0-0.2,0-0.3,0.1-0.5c0-0.1,0.1-0.2,0-0.3C15.6,22.2,15.5,22.2,15.4,22.2z"/>
	<path class="st0" d="M18.9,7.3c0.4,0.3,0.8,0.4,1.3,0.2c0.5-0.3,0.9-0.6,0.9-1.3c0-0.3,0-0.5-0.2-0.7c-0.1-0.2-0.3-0.3-0.4-0.5
		c-0.3-0.3-0.3-0.3-0.5,0c-0.5,0.5-1,1-1.5,1.5c-0.1,0.1-0.2,0.2,0,0.3C18.5,7,18.7,7.1,18.9,7.3z"/>
	<path class="st0" d="M11.8,3.4c0.3,0,0.5,0,0.7-0.2c0.1-0.1,0.2-0.2,0.2-0.4c0-0.3-0.2-0.6-0.5-0.6c-0.2,0-0.4,0-0.5,0
		c-0.1,0-0.2,0.1-0.2,0.2c0,0.3,0.1,0.6,0.1,0.8C11.6,3.4,11.7,3.4,11.8,3.4z"/>
	<path class="st0" d="M22.8,11.4c-0.1,0-0.2,0.1-0.1,0.2c0.1,0.2,0.1,0.4,0.2,0.5c0,0.2,0.1,0.2,0.3,0.1c0.2-0.2,0.5-0.4,0.7-0.6
		c0,0,0.1-0.1,0.1-0.1c-0.1,0-0.1-0.1-0.2-0.1C23.4,11.4,23.1,11.4,22.8,11.4z"/>
	<path class="st0" d="M3.9,12.2c0.1,0.1,0.2,0.1,0.2-0.1c0.1-0.2,0.1-0.4,0.2-0.6c0-0.2,0-0.2-0.2-0.2c-0.3,0-0.6,0-0.9,0
		c0,0,0,0,0,0c0,0-0.1,0-0.1,0c0,0,0,0.1,0,0.1C3.4,11.8,3.6,12,3.9,12.2z"/>
	<path class="st0" d="M6.8,26.6c0,0-0.2,0-0.2,0c-0.2,0.2-0.4,0.3-0.6,0.5c0,0-0.1,0.1-0.1,0.2c0.1,0.2,0.3,0.3,0.5,0.3
		c0.3,0,0.6-0.2,0.6-0.5C7.1,27,7,26.7,6.8,26.6z"/>
	<path class="st0" d="M17.2,29c-0.1,0.1-0.2,0.1-0.1,0.3c0.1,0.2,0.2,0.4,0.4,0.6c0,0.1,0.1,0.1,0.2,0.1c0.2,0,0.4-0.3,0.4-0.5
		C18.1,29,17.7,28.8,17.2,29z"/>
	<path class="st0" d="M23.8,17.7c-0.3,0-0.6,0.2-0.6,0.5c0,0.3,0.2,0.5,0.6,0.5c0.3,0,0.6-0.2,0.6-0.5
		C24.4,17.9,24.1,17.7,23.8,17.7z"/>
	<path class="st0" d="M14.3,29.9c-0.1,0-0.1,0.1-0.1,0.2c0,0.1,0,0.3,0.1,0.3c0.1,0,0.2-0.1,0.2-0.3C14.6,30,14.5,29.9,14.3,29.9z"
		/>
	<path class="st0" d="M9.5,29.5c0.1,0,0.1,0.1,0.2,0.1c0.1-0.1,0.1-0.1,0.2-0.2c-0.1-0.1-0.1-0.1-0.1-0.1
		C9.6,29.4,9.5,29.5,9.5,29.5z"/>
	<path class="st0" d="M20.7,26.3C20.6,26.3,20.6,26.4,20.7,26.3c0,0.1,0,0.2,0.1,0.3c0,0,0.1,0,0.2,0c0-0.1,0-0.2,0-0.2
		C20.9,26.4,20.8,26.4,20.7,26.3z"/>
</g>
</svg>
