<?xml version="1.0" encoding="utf-8"?>
<!-- Generator: Adobe Illustrator 27.0.0, SVG Export Plug-In . SVG Version: 6.00 Build 0)  -->
<svg version="1.1" id="Calque_1" xmlns="http://www.w3.org/2000/svg" xmlns:xlink="http://www.w3.org/1999/xlink" x="0px" y="0px"
	 viewBox="0 0 147.4 147.4" style="enable-background:new 0 0 147.4 147.4;" xml:space="preserve">
<style type="text/css">
	.st0{fill:#BE1622;}
</style>
<path d="M22.3,2.8h-8.8l0,0h-5v113.4h5V70.5h8.8C31.5,70.5,39,63,39,53.9V19.5C39,10.3,31.5,2.8,22.3,2.8z M22.3,65.5h-8.8V7.8h8.8
	c6.4,0,11.7,5.2,11.7,11.7v34.3C34,60.3,28.8,65.5,22.3,65.5z"/>
<path d="M113.4,74H98.9V61.5h-5V74H80.7L69.2,2.8h-5.1L45.7,116.2h5.1l6-37.2h19.7l6,37.2h5.1l-6-37.2h12.3v13.2h5V79h14.5L113.4,74
	L113.4,74z M57.6,74l9-55.6l9,55.6H57.6z"/>
<g>
	<path d="M16.5,138.8H7.7l-2,5.5H2.8l8-21h2.4l8,21h-2.8L16.5,138.8z M8.5,136.5h7.1l-3.6-9.8L8.5,136.5z"/>
	<path d="M30.3,134.9c-2.4-0.7-4.1-1.5-5.2-2.5c-1.1-1-1.6-2.2-1.6-3.7c0-1.7,0.7-3,2-4.1s3-1.6,5.1-1.6c1.4,0,2.7,0.3,3.8,0.8
		c1.1,0.6,2,1.3,2.6,2.3c0.6,1,0.9,2.1,0.9,3.2h-2.8c0-1.3-0.4-2.3-1.2-3c-0.8-0.7-1.9-1.1-3.4-1.1c-1.4,0-2.4,0.3-3.2,0.9
		s-1.1,1.4-1.1,2.5c0,0.9,0.4,1.6,1.1,2.2c0.7,0.6,2,1.1,3.7,1.6c1.7,0.5,3.1,1,4.1,1.6s1.7,1.3,2.2,2.1c0.5,0.8,0.7,1.7,0.7,2.8
		c0,1.7-0.7,3.1-2,4.1s-3.1,1.5-5.3,1.5c-1.4,0-2.8-0.3-4-0.8c-1.2-0.6-2.2-1.3-2.9-2.3s-1-2.1-1-3.3h2.8c0,1.3,0.5,2.3,1.4,3
		c0.9,0.7,2.2,1.1,3.8,1.1c1.5,0,2.6-0.3,3.4-0.9c0.8-0.6,1.2-1.4,1.2-2.4c0-1-0.4-1.8-1.1-2.4C33.5,136,32.2,135.5,30.3,134.9z"/>
	<path d="M47.8,134.9c-2.4-0.7-4.1-1.5-5.2-2.5c-1.1-1-1.6-2.2-1.6-3.7c0-1.7,0.7-3,2-4.1s3-1.6,5.2-1.6c1.4,0,2.7,0.3,3.8,0.8
		c1.1,0.6,2,1.3,2.6,2.3c0.6,1,0.9,2.1,0.9,3.2h-2.8c0-1.3-0.4-2.3-1.2-3c-0.8-0.7-1.9-1.1-3.4-1.1c-1.4,0-2.4,0.3-3.2,0.9
		s-1.2,1.4-1.2,2.5c0,0.9,0.4,1.6,1.1,2.2c0.7,0.6,2,1.1,3.7,1.6c1.7,0.5,3.1,1,4.1,1.6s1.7,1.3,2.2,2.1c0.5,0.8,0.7,1.7,0.7,2.8
		c0,1.7-0.7,3.1-2,4.1s-3.1,1.5-5.3,1.5c-1.4,0-2.8-0.3-4-0.8c-1.2-0.6-2.2-1.3-2.9-2.3s-1-2.1-1-3.3h2.8c0,1.3,0.5,2.3,1.4,3
		c0.9,0.7,2.2,1.1,3.8,1.1c1.5,0,2.6-0.3,3.4-0.9c0.8-0.6,1.2-1.4,1.2-2.4c0-1-0.4-1.8-1.1-2.4C51,136,49.7,135.5,47.8,134.9z"/>
	<path d="M75.2,134.5c0,2.1-0.3,3.9-1,5.4s-1.7,2.7-2.9,3.5c-1.3,0.8-2.8,1.2-4.4,1.2c-1.7,0-3.1-0.4-4.4-1.2c-1.3-0.8-2.3-2-3-3.5
		c-0.7-1.5-1.1-3.2-1.1-5.2v-1.5c0-2,0.3-3.8,1-5.3c0.7-1.6,1.7-2.7,3-3.6c1.3-0.8,2.8-1.2,4.4-1.2c1.7,0,3.2,0.4,4.4,1.2
		s2.3,2,3,3.5c0.7,1.5,1,3.3,1,5.4L75.2,134.5L75.2,134.5z M72.5,133.1c0-2.5-0.5-4.4-1.5-5.7c-1-1.3-2.4-2-4.2-2
		c-1.8,0-3.1,0.7-4.1,2c-1,1.3-1.5,3.2-1.5,5.5v1.5c0,2.4,0.5,4.3,1.5,5.7c1,1.4,2.4,2.1,4.2,2.1c1.8,0,3.2-0.6,4.2-1.9
		s1.5-3.2,1.5-5.6L72.5,133.1L72.5,133.1z"/>
	<path d="M94.8,137.6c-0.3,2.2-1.1,3.9-2.5,5.1c-1.4,1.2-3.2,1.8-5.5,1.8c-2.5,0-4.5-0.9-6-2.7c-1.5-1.8-2.2-4.1-2.2-7.1v-2
		c0-1.9,0.3-3.7,1-5.1c0.7-1.5,1.7-2.6,3-3.4c1.3-0.8,2.8-1.2,4.4-1.2c2.2,0,4,0.6,5.4,1.9c1.3,1.2,2.1,3,2.3,5.2H92
		c-0.2-1.7-0.8-2.9-1.6-3.6c-0.8-0.8-1.9-1.1-3.4-1.1c-1.8,0-3.2,0.7-4.2,2c-1,1.3-1.5,3.2-1.5,5.6v2c0,2.3,0.5,4.1,1.4,5.4
		c0.9,1.4,2.3,2,4,2c1.5,0,2.7-0.4,3.5-1c0.8-0.7,1.4-1.9,1.6-3.6L94.8,137.6L94.8,137.6z"/>
	<path d="M101.6,144.3h-2.8v-21h2.8V144.3z"/>
	<path d="M118.2,138.8h-8.8l-2,5.5h-2.8l8-21h2.4l8,21h-2.8L118.2,138.8z M110.2,136.5h7.1l-3.6-9.8L110.2,136.5z"/>
	<path d="M138.5,125.6h-6.7v18.7H129v-18.7h-6.7v-2.3h16.2L138.5,125.6L138.5,125.6z"/>
	<path d="M144.6,144.3h-2.8v-21h2.8V144.3z"/>
</g>
<polygon class="st0" points="139.6,2.8 139.6,95.9 116.3,2.8 111.2,2.8 111.2,116.2 116.2,116.2 116.2,23.1 139.5,116.2 
	144.6,116.2 144.6,2.8 "/>
</svg>
