<?xml version="1.0" encoding="utf-8"?>
<!-- Generator: Adobe Illustrator 27.0.0, SVG Export Plug-In . SVG Version: 6.00 Build 0)  -->
<svg version="1.1" id="Calque_1" xmlns="http://www.w3.org/2000/svg" xmlns:xlink="http://www.w3.org/1999/xlink" x="0px" y="0px"
	 viewBox="0 0 34 34" style="enable-background:new 0 0 34 34;" xml:space="preserve">
<style type="text/css">
	.st0{fill:#BE1622;}
</style>
<g>
	<path class="st0" d="M22,22.4c1-0.9,1.8-2,2.3-3.2c0.2-0.5,0.4-1.1,0.5-1.7c0.2-1,0.2-2,0-3.1c-0.1-0.4-0.2-0.8-0.3-1.2
		c-0.1-0.3-0.2-0.7-0.4-1c0-0.1-0.1-0.1-0.2,0c-0.1,0.1-0.1,0.2-0.2,0.2c-1.7,1.7-3.3,3.3-5,5c-0.9,0.9-1.8,1.8-2.7,2.6
		c-0.1,0.1-0.1,0.1-0.2,0c-0.2-0.2-0.4-0.4-0.6-0.6c-0.6-0.6-1.2-1.3-1.9-1.9c-0.1-0.1-0.1-0.2-0.1-0.3c0-0.6,0-1.1,0-1.7
		c0,0,0,0,0,0c0-0.6,0-1.2,0-1.8c0,0,0-0.1,0-0.1c0,0,0.1,0,0.1,0.1c0.7,0.6,1.4,1.2,2.1,1.9c0.2,0.2,0.2,0.2,0.5,0
		c1.5-1.4,2.9-2.7,4.4-4.1c0.6-0.6,1.2-1.1,1.8-1.7c0.2-0.2,0.2-0.2,0-0.3c-0.9-0.8-1.9-1.5-3.1-1.9c-0.8-0.3-1.6-0.5-2.5-0.5
		c-1.4-0.1-2.7,0.2-4,0.7c-0.9,0.4-1.7,0.9-2.4,1.5c-1.2,1.1-2,2.4-2.5,3.9c-0.2,0.7-0.3,1.4-0.4,2.2C7.3,16.7,7.5,17.9,8,19
		c0.3,0.7,0.6,1.4,1.1,2c1,1.4,2.4,2.4,4,3c0.8,0.3,1.5,0.5,2.4,0.5c1.4,0.1,2.8-0.1,4.1-0.6C20.4,23.6,21.3,23,22,22.4z"/>
	<path class="st0" d="M2.8,15.9C3,15.9,3,15.9,3,15.8c0.1-1,0.2-2,0.5-3C3.7,11.9,4,11,4.4,10.2c0.4-0.8,0.8-1.5,1.3-2.2
		c1-1.4,2.3-2.5,3.8-3.3c0.8-0.4,1.6-0.7,2.4-1c0.8-0.2,1.7-0.4,2.6-0.4c1.8-0.1,3.6-0.1,5.4,0.4c0.7,0.2,1.4,0.4,2,0.7
		c0.8,0.4,1.5,0.9,2.2,1.4c0.9,0.8,1.7,1.7,2.4,2.8c0.4,0.6,0.7,1.2,1,1.9c0.2,0.6,0.5,1.2,0.6,1.8c0.2,0.7,0.4,1.5,0.5,2.3
		c0.2,0.9,0.3,1.9,0.3,2.8c0,2.1,0,4.2,0,6.3c0,0.2,0,0.2,0.2,0.2c0.9,0,1.7,0,2.6,0c0.2,0,0.2,0,0.2-0.2c0-2.2,0-4.5,0-6.7
		c0-1,0-1.9-0.2-2.9c-0.1-0.9-0.3-1.8-0.5-2.6c-0.2-0.8-0.5-1.5-0.7-2.2c-0.3-0.8-0.7-1.6-1.1-2.3c-0.5-0.9-1.1-1.7-1.8-2.4
		c-0.7-0.8-1.5-1.5-2.4-2.1c-0.6-0.4-1.3-0.8-2-1.1c-0.4-0.2-0.8-0.3-1.2-0.5c-0.5-0.2-0.9-0.3-1.4-0.4c-0.6-0.1-1.1-0.2-1.7-0.3
		c-0.5-0.1-1-0.1-1.5-0.2c-1.1,0-2.2,0-3.3,0.1c-0.8,0.1-1.7,0.2-2.5,0.4c-0.7,0.2-1.3,0.4-2,0.6c-0.7,0.3-1.3,0.6-2,1
		c-0.8,0.5-1.6,1-2.2,1.7C4.3,4.6,3.6,5.4,3,6.3C2.6,6.9,2.3,7.5,1.9,8.1C1.8,8.5,1.6,8.8,1.5,9.2c-0.1,0.4-0.3,0.7-0.4,1.1
		c-0.1,0.4-0.3,0.9-0.4,1.3c-0.1,0.6-0.3,1.2-0.4,1.9C0.1,14,0.2,14.6,0,15.1c-0.1,0.3,0,0.5,0,0.8c0.1,0,0.1,0,0.1,0
		C1.1,15.9,1.9,15.9,2.8,15.9z"/>
	<path class="st0" d="M25.4,27.6c0.1-0.6,0.6-0.8,1.1-0.5c0.1,0.1,0.2,0.2,0.3,0.3c0.1,0.1,0.1,0.3,0.1,0.4c0,0.1,0.1,0.2,0.2,0.2
		c0.2,0,0.5,0,0.7,0c0.1,0,0.2-0.1,0.2-0.2c0-0.2,0-0.5-0.1-0.7c-0.1-0.4-0.4-0.7-0.8-0.8c-0.5-0.1-0.9-0.1-1.4-0.1
		c-0.3,0.1-0.6,0.2-0.8,0.5c-0.2,0.3-0.3,0.6-0.3,0.9c-0.1,0.9-0.1,1.9,0,2.8c0,0.4,0.2,0.8,0.6,1.1c0.4,0.2,0.8,0.3,1.2,0.3
		c0.3,0,0.6-0.2,0.8-0.5c0,0,0.1-0.1,0.1-0.1c0,0,0,0,0.1,0c0,0.1,0,0.2,0,0.2c0,0.2,0,0.2,0.2,0.2c0.1,0,0.3,0,0.4,0
		c0.1,0,0.2,0,0.2-0.2c0-0.8,0-1.7,0-2.5c0-0.1,0-0.2-0.2-0.2c-0.5,0-0.9,0-1.4,0c-0.1,0-0.2,0-0.2,0.1c0,0.2,0,0.3,0,0.5
		c0,0.1,0.1,0.2,0.2,0.2c0.1,0,0.3,0,0.4,0c0.1,0,0.2,0.1,0.2,0.2c0,0.3-0.1,0.5-0.1,0.8c-0.1,0.5-0.7,0.6-1.1,0.3
		c-0.2-0.1-0.3-0.4-0.3-0.6C25.4,29.4,25.4,28.5,25.4,27.6C25.4,27.7,25.4,27.7,25.4,27.6z"/>
	<path class="st0" d="M30.4,30.9c-0.1,0-0.3,0.1-0.4,0c-0.2,0-0.4-0.2-0.4-0.4c0-0.2-0.1-0.4-0.1-0.6c0-0.2,0-0.2-0.2-0.2
		c-0.1,0-0.2,0-0.3,0c-0.1,0-0.2,0-0.3,0c-0.2,0-0.2,0-0.2,0.2c0,0.3,0,0.6,0.1,0.8c0.1,0.4,0.3,0.7,0.7,0.8
		c0.4,0.2,0.9,0.2,1.3,0.1c0.6-0.1,1-0.4,1.2-1.1c0.2-0.5,0-1.3-0.5-1.7c-0.4-0.3-0.9-0.6-1.3-0.9c-0.2-0.2-0.4-0.3-0.4-0.6
		c0-0.3,0.1-0.4,0.4-0.5c0.3-0.1,0.6,0,0.7,0.3c0.1,0.1,0.1,0.3,0.1,0.5c0,0.1,0,0.2,0.2,0.2c0.2,0,0.4,0,0.7,0
		c0.1,0,0.2-0.1,0.2-0.2c0-0.2,0-0.4-0.1-0.6c-0.1-0.4-0.4-0.7-0.8-0.8c-0.5-0.2-1.1-0.2-1.6,0c-0.4,0.1-0.6,0.4-0.7,0.7
		c-0.2,0.7,0,1.3,0.6,1.7c0.4,0.3,0.8,0.5,1.2,0.8c0.3,0.2,0.5,0.4,0.5,0.8C30.7,30.6,30.6,30.8,30.4,30.9z"/>
	<path class="st0" d="M20.8,29.8c-0.1,0-0.2,0.1-0.2,0.2c0,0.2,0,0.5,0,0.7c0.1,0.4,0.3,0.7,0.6,0.9c0.6,0.3,1.1,0.3,1.7,0.1
		c0.6-0.2,0.9-0.6,0.9-1.2c0.1-0.6-0.1-1.1-0.6-1.5c-0.3-0.2-0.6-0.4-0.9-0.6c-0.2-0.1-0.4-0.3-0.6-0.4c-0.2-0.2-0.2-0.5-0.1-0.7
		c0.1-0.3,0.6-0.4,0.8-0.2c0.3,0.2,0.3,0.4,0.3,0.7c0,0.2,0,0.2,0.2,0.2c0.2,0,0.4,0,0.7,0c0.1,0,0.2-0.1,0.2-0.2
		c0-0.2,0-0.4-0.1-0.7c-0.1-0.4-0.4-0.7-0.7-0.8c-0.5-0.2-1.1-0.2-1.6,0c-0.3,0.1-0.5,0.3-0.6,0.5c-0.3,0.6-0.2,1.4,0.4,1.8
		c0.4,0.3,0.8,0.5,1.1,0.8c0.2,0.2,0.5,0.3,0.6,0.6c0.1,0.2,0.1,0.6-0.1,0.8C22.5,31,22.2,31,22,30.9c-0.2-0.1-0.4-0.3-0.4-0.5
		c0-0.1,0-0.3,0-0.4c0-0.2,0-0.2-0.2-0.2c-0.1,0-0.2,0-0.3,0c0,0,0,0,0,0C21,29.8,20.9,29.8,20.8,29.8z"/>
	<path class="st0" d="M3.4,19.9C3.4,19.9,3.3,19.9,3.4,19.9c-0.2-0.5-0.5-0.7-0.9-0.6c-0.5,0.1-0.9,0.2-1.4,0.4
		c-0.3,0.1-0.5,0.4-0.5,0.7c0,0.1,0.1,0.3,0.1,0.4c0.1,0.4,0.5,0.6,0.9,0.5C2,21.2,2.5,21,2.9,20.9C3.4,20.7,3.5,20.4,3.4,19.9z
		 M2.5,20.5c-0.3,0.1-0.6,0.2-1,0.3c-0.1,0-0.1,0-0.2,0c-0.2,0-0.4-0.1-0.4-0.2c0-0.2,0-0.4,0.2-0.4c0.4-0.1,0.8-0.2,1.2-0.4
		c0.1,0,0.3,0,0.4,0.1C3,20,3,20.2,2.9,20.3C2.8,20.4,2.7,20.5,2.5,20.5z"/>
	<path class="st0" d="M4.1,24.7c0.3-0.2,0.5-0.4,0.8-0.6c0.2-0.1,0.2-0.3,0.2-0.5c-0.1-0.2-0.2-0.4-0.3-0.5
		c-0.2-0.2-0.4-0.2-0.6-0.1c-0.4,0.3-0.9,0.6-1.3,0.9c-0.2,0.1-0.3,0.3-0.3,0.5c0.1,0.1,0.1,0.3,0.2,0.4c0.2,0.4,0.5,0.5,0.9,0.3
		C3.8,25,4,24.9,4.1,24.7z M3.2,24.7c-0.1,0-0.1-0.1-0.2-0.2c0-0.1,0-0.2,0-0.2c0.2-0.1,0.4-0.3,0.5-0.4c0.2-0.1,0.4-0.3,0.6-0.4
		c0.2-0.1,0.3-0.1,0.4,0c0.1,0.1,0.1,0.2,0,0.3c-0.1,0.1-0.3,0.2-0.4,0.3c-0.3,0.2-0.6,0.4-0.9,0.6C3.3,24.7,3.2,24.7,3.2,24.7z"/>
	<path class="st0" d="M6,24.8c-0.1-0.2-0.2-0.3-0.4-0.5c-0.2-0.2-0.4-0.2-0.6,0c-0.1,0.1-0.2,0.2-0.4,0.3c-0.3,0.3-0.6,0.5-0.9,0.8
		c-0.2,0.2-0.3,0.4-0.1,0.7c0.1,0.2,0.3,0.4,0.7,0.5c0.1,0,0.2,0,0.2-0.1c0.4-0.4,0.9-0.7,1.3-1.1C6.1,25.2,6.2,25,6,24.8z M5.5,25
		c-0.4,0.3-0.7,0.6-1.1,1c-0.1,0.1-0.2,0.1-0.3,0C4,26,4,25.9,4.1,25.7c0.2-0.2,0.4-0.3,0.6-0.5c0.2-0.2,0.4-0.4,0.6-0.5
		c0,0,0.1,0,0.2,0c0.1,0,0.1,0.1,0.1,0.2C5.6,24.9,5.6,25,5.5,25z"/>
	<path class="st0" d="M1.5,19.1c0.2-0.1,0.3-0.4,0.4-0.6c0.1-0.1,0.1-0.3,0.2-0.4C2.1,18,2.3,17.9,2.4,18c0.1,0.1,0.1,0.2,0.2,0.3
		c0,0.1-0.1,0.2-0.3,0.3c0,0-0.1,0-0.1,0c0,0.1-0.1,0.1-0.1,0.2c0,0.1,0,0.2,0.1,0.3c0,0,0,0,0.1,0C2.7,19,3,18.8,3,18.3
		c0-0.1,0-0.2,0-0.2c-0.1-0.3-0.2-0.5-0.4-0.6c-0.3-0.1-0.6,0-0.8,0.2c-0.1,0.2-0.2,0.4-0.3,0.6c-0.1,0.1-0.1,0.3-0.2,0.4
		c-0.1,0.1-0.3,0.1-0.4,0.1c-0.1-0.1-0.2-0.2-0.2-0.3c0-0.1,0.1-0.2,0.3-0.3c0.1,0,0.1,0,0.2,0c0,0,0.1-0.1,0.1-0.1
		c0-0.1,0-0.2,0-0.3c0,0-0.1-0.1-0.1-0.1c-0.2,0-0.6,0.2-0.7,0.4c-0.1,0.2-0.1,0.5,0,0.7C0.4,19.3,1,19.5,1.5,19.1z"/>
	<path class="st0" d="M3.9,23c0.4-0.2,0.5-0.5,0.3-0.9c-0.1-0.3-0.4-0.6-0.8-0.5c-0.2,0.1-0.4,0.2-0.6,0.3c-0.5,0.3-0.5,0.7-0.1,1
		c0.1,0.1,0.1,0.1,0,0.2c-0.1,0-0.2,0.1-0.2,0.1c-0.1,0-0.2,0-0.3-0.1C2,23.1,2,23,2.1,22.9c0.1-0.1,0-0.4-0.2-0.4c0,0-0.1,0-0.1,0
		c-0.1,0.1-0.2,0.2-0.2,0.4c0,0.3,0.1,0.5,0.4,0.7c0.1,0.1,0.2,0.1,0.3,0.1c0.1,0,0.2,0,0.3-0.1C3,23.4,3.5,23.2,3.9,23z M2.9,22.5
		c0.2-0.1,0.4-0.2,0.7-0.3c0.1-0.1,0.2,0.1,0.3,0.1c0.1,0.1,0,0.2-0.1,0.2c-0.2,0.2-0.4,0.3-0.7,0.4c-0.1-0.1-0.1-0.1-0.2-0.2
		C2.8,22.6,2.8,22.5,2.9,22.5z"/>
	<path class="st0" d="M6.8,25.6c-0.2,0.1-0.4,0-0.6-0.1c0,0-0.1,0-0.1-0.1c-0.1,0.1-0.1,0.1-0.2,0.2c0,0,0,0.1,0.1,0.2
		c0.1,0.1,0.1,0.1,0.2,0.2c0.1,0.1,0.1,0.2,0,0.2c-0.3,0.3-0.6,0.7-0.9,1c-0.3,0.3-0.2,0.2,0,0.5c0.1,0.1,0.2,0.1,0.3,0
		c0.5-0.6,1-1.1,1.6-1.7c0.1-0.1,0.1-0.1,0.1-0.2C7,25.6,7,25.5,6.8,25.6z"/>
	<path class="st0" d="M0.3,17.4c0.4,0,0.8,0,1.2-0.1c0,0,0,0,0,0c0.4,0,0.8,0,1.1,0c0.2,0,0.2,0,0.2-0.2c0-0.3,0-0.3-0.3-0.3
		c-0.7,0-1.4,0.1-2.1,0.1c-0.3,0-0.4,0-0.3,0.4C0.1,17.3,0.2,17.4,0.3,17.4z"/>
	<path class="st0" d="M34,31.9C34,31.9,34,31.9,34,31.9L34,31.9l-2,0c0,0,0,0,0,0l0-7.3h-0.1l0,7.3c0,0,0,0,0,0l-14.8,0V32l14.8,0
		c0,0,0,0,0,0l0,2h0.1l0-2c0,0,0,0,0,0L34,31.9L34,31.9C34,31.9,34,31.9,34,31.9C34,31.9,34,31.9,34,31.9z"/>
</g>
</svg>
